<svg width="20" height="20" viewBox="0 0 20 20" fill="none" xmlns="http://www.w3.org/2000/svg">
<g id="air-vent">
<path id="Vector" d="M5.00008 10H3.33341C2.89139 10 2.46746 9.8244 2.1549 9.51184C1.84234 9.19928 1.66675 8.77536 1.66675 8.33333V4.16667C1.66675 3.72464 1.84234 3.30072 2.1549 2.98816C2.46746 2.67559 2.89139 2.5 3.33341 2.5H16.6667C17.1088 2.5 17.5327 2.67559 17.8453 2.98816C18.1578 3.30072 18.3334 3.72464 18.3334 4.16667V8.33333C18.3334 8.77536 18.1578 9.19928 17.8453 9.51184C17.5327 9.8244 17.1088 10 16.6667 10H15.0001" stroke="white" stroke-linecap="round" stroke-linejoin="round"/>
<path id="Vector_2" d="M5 6.66667H15" stroke="white" stroke-linecap="round" stroke-linejoin="round"/>
<path id="Vector_3" d="M15.2501 14.75C15.6027 15.1187 15.8077 15.6039 15.8264 16.1136C15.8451 16.6234 15.6761 17.1223 15.3515 17.5158C15.0268 17.9093 14.5691 18.17 14.065 18.2485C13.561 18.327 13.0457 18.2178 12.6167 17.9417C12.3379 17.7588 12.1063 17.5124 11.9412 17.2226C11.7761 16.9329 11.682 16.6081 11.6667 16.275V10" stroke="white" stroke-linecap="round" stroke-linejoin="round"/>
<path id="Vector_4" d="M5.50008 13C5.30317 13.1931 5.15724 13.432 5.07537 13.6953C4.99351 13.9587 4.97827 14.2382 5.03102 14.5089C5.08377 14.7796 5.20286 15.0329 5.37761 15.2462C5.55237 15.4596 5.77733 15.6262 6.03233 15.7312C6.28733 15.8362 6.5644 15.8763 6.8387 15.8479C7.113 15.8194 7.37596 15.7234 7.60401 15.5683C7.83206 15.4133 8.01808 15.2041 8.14538 14.9594C8.27268 14.7148 8.33729 14.4424 8.33341 14.1667V10" stroke="white" stroke-linecap="round" stroke-linejoin="round"/>
</g>
</svg>
