<svg width="34" height="34" viewBox="0 0 34 34" fill="none" xmlns="http://www.w3.org/2000/svg">
<g id="arrow-right" opacity="0.4">
<path id="Icon" d="M12.4644 12.0502C12.4644 11.4979 12.9121 11.0502 13.4644 11.0502L21.9497 11.0502C22.2149 11.0502 22.4692 11.1555 22.6568 11.3431C22.8443 11.5306 22.9497 11.785 22.9497 12.0502L22.9497 20.5355C22.9497 21.0877 22.5019 21.5355 21.9497 21.5355C21.3974 21.5355 20.9497 21.0877 20.9497 20.5355V14.4644L12.7573 22.6568C12.3667 23.0473 11.7336 23.0473 11.3431 22.6568C10.9525 22.2663 10.9525 21.6331 11.3431 21.2426L19.5354 13.0502L13.4644 13.0502C12.9121 13.0502 12.4644 12.6025 12.4644 12.0502Z" fill="white"/>
</g>
</svg>
