<svg width="36" height="36" viewBox="0 0 36 36" fill="none" xmlns="http://www.w3.org/2000/svg">
<g id="Search results for Office man - Flaticon-2 1" clip-path="url(#clip0_2628_17554)">
<g id="Group">
<g id="Group_2">
<g id="Group_3">
<path id="Vector" d="M29.4049 25.7902C29.0661 24.0927 27.8305 23.3971 27.1243 23.1335C27.1127 23.1293 27.101 23.1254 27.0891 23.1219C26.9522 23.0815 23.0958 21.944 22.6416 21.81L21.2548 20.8722V20.0061C23.4912 18.8369 25.0022 16.4959 25.0022 13.8067V13.7093C26.1501 13.4972 27.0142 12.6076 27.0142 11.5453C27.0142 10.9684 26.7592 10.4426 26.3425 10.0484V5.49902C26.3425 2.97339 24.0561 1.04107 21.5533 1.48326C18.1536 -1.065 13.2621 -0.259012 10.89 3.35695C10.7303 3.60058 10.7982 3.92753 11.0417 4.08743C11.2853 4.24718 11.6123 4.17918 11.7722 3.93569C12.9554 2.13182 14.9477 1.05499 17.1012 1.05499C18.5697 1.05499 19.9496 1.54099 21.0917 2.46032C21.2194 2.56312 21.3879 2.60074 21.5471 2.562C23.4605 2.09702 25.2877 3.55186 25.2877 5.49902V9.44981C25.1822 9.41866 25.0736 9.39314 24.9624 9.37422C24.8835 9.02653 24.6774 8.72517 24.5221 8.60388L22.3291 6.89648C21.7894 6.47636 21.0935 6.41498 20.6302 6.62557C15.317 8.67946 12.1326 8.67946 11.9745 8.70211C11.5779 8.74007 11.187 8.97414 11.0607 9.37373C10.9485 9.39271 10.8389 9.41831 10.7324 9.44974C10.7618 7.74888 10.6481 7.09961 10.8845 6.03586C10.9477 5.75151 10.7685 5.4697 10.4841 5.40656C10.1997 5.34321 9.91787 5.52257 9.8548 5.80699C9.57699 7.05707 9.71368 7.79753 9.67754 10.0482C9.26094 10.4423 9.00599 10.9681 9.00599 11.545C9.00599 12.6073 9.87005 13.4969 11.018 13.7091V13.7145C11.018 16.2909 12.4301 18.7251 14.7465 19.9753V20.8802L13.3812 21.8034C13.2733 21.8353 8.91071 23.121 8.87696 23.1334C8.17067 23.3969 6.93521 24.0925 6.59623 25.7902L5.05906 33.509C5.05716 33.5185 5.05548 33.5281 5.05414 33.5377C4.8508 34.9717 5.62023 36 7.19255 36H12.8121C13.1034 36 13.3396 35.7639 13.3396 35.4725C13.3396 35.1812 13.1034 34.9451 12.8121 34.9451H10.9115V29.9735C10.9115 29.6821 10.6754 29.446 10.384 29.446C10.0927 29.446 9.85656 29.6821 9.85656 29.9735V34.9451H7.19241C6.47263 34.9451 6.08366 34.7032 6.07817 33.9834C6.07522 33.6246 6.05954 33.9819 7.63039 25.9967C7.86657 24.8137 8.72558 24.3196 9.2288 24.1282C9.40838 24.0753 13.1906 22.9596 13.269 22.9365L14.236 25.6465C14.4258 26.1783 14.9667 26.4302 15.4506 26.3297L17.1058 27.7818C17.6135 28.2273 18.3828 28.2311 18.8949 27.784L20.5611 26.3294C21.0585 26.433 21.5912 26.1666 21.7768 25.6464L22.7427 22.9398C23.2388 23.0861 25.6872 23.8083 26.7719 24.1282C27.2751 24.3196 28.1341 24.8137 28.3703 25.9964C29.9675 34.1156 29.9368 33.6544 29.9213 34.0389C29.896 34.674 29.5632 34.945 28.8084 34.945H26.1631V29.9735C26.1631 29.6821 25.927 29.446 25.6357 29.446C25.3443 29.446 25.1082 29.6821 25.1082 29.9735V34.9451H15.2737C14.9823 34.9451 14.7462 35.1812 14.7462 35.4725C14.7462 35.7639 14.9823 36 15.2737 36H28.8084C30.1115 36 30.9657 35.283 30.9777 33.9915C30.9791 33.7866 31.0196 33.9922 29.4049 25.7902ZM25.0022 10.4634C26.2792 10.8429 26.273 12.2495 25.0022 12.6272V10.4634ZM11.0178 12.6272C9.74448 12.2487 9.74342 10.8422 11.0178 10.4634V12.6272ZM12.0727 13.7148C12.0727 13.2424 12.0727 10.2576 12.0727 9.75377C12.0798 9.7525 15.936 9.63951 21.0118 7.60917L21.0527 7.59328C21.1551 7.56002 21.405 7.51425 21.6809 7.72898L23.8434 9.41261C23.9932 9.59578 23.9473 9.47055 23.9473 13.8067C23.9473 16.1525 22.5927 18.1849 20.6082 19.1484C20.4811 19.1725 18.3847 20.2795 15.937 19.3634C13.6317 18.4852 12.0727 16.218 12.0727 13.7148ZM20.1998 20.451V21.0464L18.8544 24.2617L17.1632 24.2618C16.8336 23.4772 15.7314 20.8523 15.8012 21.0177V20.4359C17.2572 20.9289 18.8113 20.9059 20.1998 20.451ZM15.2376 25.2966C15.2229 25.2959 15.2722 25.3971 14.2335 22.5006L15.0477 21.95C15.3395 22.6474 16.0216 24.2777 16.1613 24.6116L15.2376 25.2966ZM18.2013 26.9893C18.0874 27.0888 17.9155 27.0887 17.8018 26.9888L16.3946 25.7543L16.9878 25.3166H19.0314L19.6185 25.7522L18.2013 26.9893ZM20.7823 25.2944C20.7729 25.3039 20.7896 25.3019 19.8518 24.6116C20.267 23.6193 20.7407 22.4871 20.9654 21.95L21.7795 22.5006L20.7823 25.2944Z" fill="white"/>
</g>
</g>
</g>
</g>
<defs>
<clipPath id="clip0_2628_17554">
<rect width="36" height="36" fill="white"/>
</clipPath>
</defs>
</svg>
