<svg width="17" height="17" viewBox="0 0 17 17" fill="none" xmlns="http://www.w3.org/2000/svg">
<g id="call">
<path id="Icon" d="M2.71513 2.83317H5.89551L6.92062 5.39594L5.27383 6.4938C5.07677 6.62517 4.95841 6.84634 4.95841 7.08317C4.96021 7.14949 4.95841 7.08388 4.95841 7.08388L4.95841 7.08462L4.95842 7.08621L4.95844 7.08978L4.95854 7.09852C4.95865 7.10505 4.95882 7.11298 4.95912 7.12226C4.95972 7.14083 4.96081 7.16484 4.96275 7.19393C4.96662 7.25208 4.97393 7.33069 4.98766 7.42683C5.01512 7.619 5.0684 7.88225 5.17184 8.19258C5.37955 8.81571 5.78768 9.62251 6.58254 10.4174C7.37741 11.2122 8.18421 11.6204 8.80733 11.8281C9.11766 11.9315 9.38091 11.9848 9.57308 12.0122C9.66922 12.026 9.74783 12.0333 9.80598 12.0372C9.83507 12.0391 9.85908 12.0402 9.87765 12.0408C9.88693 12.0411 9.89486 12.0413 9.90139 12.0414L9.91013 12.0415L9.9137 12.0415L9.91529 12.0415L9.91603 12.0415C9.91603 12.0415 9.99511 12.0372 9.91674 12.0415C10.185 12.0415 10.4303 11.8899 10.5503 11.6499L11.0247 10.7012L14.1667 11.2249V14.2848C12.6714 14.501 8.63282 14.7142 5.45928 11.5406C2.28573 8.36709 2.49888 4.32853 2.71513 2.83317ZM6.42724 7.42748L7.70644 6.57468C8.26386 6.20307 8.48476 5.49181 8.23596 4.8698L7.21085 2.30703C6.99571 1.76918 6.47479 1.4165 5.89551 1.4165H2.67813C2.0346 1.4165 1.42885 1.86358 1.3232 2.56181C1.08286 4.15032 0.755716 8.84054 4.45754 12.5424C8.15937 16.2442 12.8496 15.9171 14.4381 15.6767C15.1363 15.5711 15.5834 14.9653 15.5834 14.3218V11.2249C15.5834 10.5324 15.0827 9.94134 14.3996 9.82749L11.2576 9.30381C10.6441 9.20157 10.0357 9.51139 9.75756 10.0677L9.51213 10.5585C9.43498 10.5396 9.34887 10.5153 9.25532 10.4841C8.81595 10.3376 8.20608 10.0374 7.58428 9.41564C6.96248 8.79384 6.66227 8.18397 6.51581 7.74459C6.47623 7.62587 6.44774 7.51911 6.42724 7.42748Z" fill="#5D63FF"/>
</g>
</svg>
