<svg width="20" height="20" viewBox="0 0 20 20" fill="none" xmlns="http://www.w3.org/2000/svg">
<g id="call">
<path id="Vector" d="M17.4995 13.7304V15.9885C17.5004 16.1981 17.4574 16.4056 17.3732 16.5977C17.2891 16.7898 17.1657 16.9622 17.0109 17.1039C16.8561 17.2456 16.6734 17.3535 16.4744 17.4207C16.2754 17.4878 16.0646 17.5128 15.8554 17.4939C13.5346 17.2422 11.3053 16.4508 9.34668 15.1831C7.52441 14.0274 5.97945 12.4855 4.8215 10.6669C3.5469 8.70324 2.75368 6.46756 2.50612 4.14096C2.48727 3.93282 2.51206 3.72303 2.5789 3.52497C2.64574 3.32691 2.75317 3.1449 2.89436 2.99055C3.03554 2.83619 3.20738 2.71287 3.39893 2.62843C3.59049 2.54398 3.79756 2.50027 4.00697 2.50007H6.26956C6.63558 2.49648 6.99041 2.62583 7.26793 2.86403C7.54546 3.10222 7.72672 3.43301 7.77795 3.79472C7.87345 4.51736 8.05055 5.22691 8.30589 5.90981C8.40736 6.17922 8.42932 6.47202 8.36917 6.7535C8.30902 7.03498 8.16928 7.29336 7.9665 7.49801L7.00867 8.45394C8.08231 10.3384 9.64568 11.8986 11.5338 12.9702L12.4917 12.0142C12.6967 11.8118 12.9556 11.6724 13.2377 11.6123C13.5197 11.5523 13.8131 11.5742 14.083 11.6755C14.7673 11.9303 15.4782 12.1071 16.2023 12.2024C16.5687 12.254 16.9033 12.4381 17.1424 12.7199C17.3816 13.0016 17.5087 13.3612 17.4995 13.7304Z" stroke="white" stroke-width="1.5" stroke-linecap="round" stroke-linejoin="round"/>
</g>
</svg>
