<svg width="16" height="16" viewBox="0 0 16 16" fill="none" xmlns="http://www.w3.org/2000/svg">
<g id="delete">
<path id="Icon" d="M4.66659 2.66634C4.66659 1.92996 5.26354 1.33301 5.99992 1.33301H9.99992C10.7363 1.33301 11.3333 1.92996 11.3333 2.66634V3.99967H12.6597C12.6638 3.99964 12.668 3.99964 12.6721 3.99967H13.9999C14.3681 3.99967 14.6666 4.29815 14.6666 4.66634C14.6666 5.03453 14.3681 5.33301 13.9999 5.33301H13.2873L12.7091 13.428C12.6593 14.1257 12.0787 14.6663 11.3792 14.6663H4.62066C3.92115 14.6663 3.34056 14.1257 3.29072 13.428L2.71251 5.33301H1.99992C1.63173 5.33301 1.33325 5.03453 1.33325 4.66634C1.33325 4.29815 1.63173 3.99967 1.99992 3.99967H3.32775C3.33188 3.99964 3.33601 3.99964 3.34013 3.99967H4.66659V2.66634ZM5.99992 3.99967H9.99992V2.66634H5.99992V3.99967ZM4.04924 5.33301L4.62066 13.333H11.3792L11.9506 5.33301H4.04924ZM6.66658 6.66634C7.03477 6.66634 7.33325 6.96482 7.33325 7.33301V11.333C7.33325 11.7012 7.03477 11.9997 6.66658 11.9997C6.2984 11.9997 5.99992 11.7012 5.99992 11.333V7.33301C5.99992 6.96482 6.2984 6.66634 6.66658 6.66634ZM9.33325 6.66634C9.70144 6.66634 9.99992 6.96482 9.99992 7.33301V11.333C9.99992 11.7012 9.70144 11.9997 9.33325 11.9997C8.96506 11.9997 8.66658 11.7012 8.66658 11.333V7.33301C8.66658 6.96482 8.96506 6.66634 9.33325 6.66634Z" fill="#F14040"/>
</g>
</svg>
