<svg width="20" height="20" viewBox="0 0 20 20" fill="none" xmlns="http://www.w3.org/2000/svg">
<g id="dog">
<path id="Vector" d="M8.33332 4.31001C8.33332 3.15167 7.01915 2.23251 5.41665 2.50001C3.06415 2.89167 1.98915 7.50501 2.08332 8.33334C2.14998 8.91917 3.52082 9.76834 5.12998 9.16667C6.18082 8.77334 6.76332 7.95834 7.08332 7.08334" stroke="white" stroke-linecap="round" stroke-linejoin="round"/>
<path id="Vector_2" d="M11.8892 4.31001C11.8892 3.15167 13.2033 2.23251 14.8058 2.50001C17.1583 2.89167 18.2333 7.50501 18.1392 8.33334C18.0725 8.91917 16.7017 9.76834 15.0925 9.16667C14.0417 8.77334 13.5467 7.95834 13.2267 7.08334" stroke="white" stroke-linecap="round" stroke-linejoin="round"/>
<path id="Vector_3" d="M6.66675 11.6667V12.0833" stroke="white" stroke-linecap="round" stroke-linejoin="round"/>
<path id="Vector_4" d="M13.3333 11.6667V12.0833" stroke="white" stroke-linecap="round" stroke-linejoin="round"/>
<path id="Vector_5" d="M9.375 13.5417H10.625L10 14.1667L9.375 13.5417Z" stroke="white" stroke-linecap="round" stroke-linejoin="round"/>
<path id="Vector_6" d="M3.68326 9.3725C3.45003 10.2731 3.33242 11.1997 3.33326 12.13C3.33326 15.6067 6.31826 17.5 9.99992 17.5C13.6816 17.5 16.6666 15.6067 16.6666 12.13C16.6666 11.2458 16.5316 10.2967 16.2558 9.3725M8.55326 4.30417C9.02974 4.21056 9.51434 4.1645 9.99992 4.16667C10.6499 4.16667 11.2499 4.25667 11.8008 4.42167" stroke="white" stroke-linecap="round" stroke-linejoin="round"/>
</g>
</svg>
