<svg width="17" height="17" viewBox="0 0 17 17" fill="none" xmlns="http://www.w3.org/2000/svg">
<g id="edit">
<g id="Icon">
<path d="M11.5408 1.62397C11.8174 1.34735 12.2659 1.34735 12.5425 1.62397L15.3759 4.4573C15.6525 4.73392 15.6525 5.18242 15.3759 5.45904L6.16753 14.6674C6.0347 14.8002 5.85453 14.8748 5.66667 14.8748H2.83333C2.44213 14.8748 2.125 14.5577 2.125 14.1665V11.3332C2.125 11.1453 2.19963 10.9651 2.33247 10.8323L9.41565 3.74912L11.5408 1.62397ZM9.91667 5.25157L3.54167 11.6266V13.4582H5.37326L11.7483 7.08317L9.91667 5.25157ZM12.75 6.08144L13.8733 4.95817L12.0417 3.12657L10.9184 4.24984L12.75 6.08144Z" fill="#5D63FF"/>
</g>
</g>
</svg>
