<svg width="15" height="15" viewBox="0 0 15 15" fill="none" xmlns="http://www.w3.org/2000/svg">
<g id="megaphone">
<path id="Icon" d="M10.9387 1.33443C11.1314 1.44626 11.25 1.65221 11.25 1.875V4.375C11.9905 4.375 12.6564 4.69772 13.1133 5.20818C13.5088 5.65006 13.75 6.2351 13.75 6.875C13.75 7.5149 13.5088 8.09994 13.1133 8.54182C12.6564 9.05228 11.9905 9.375 11.25 9.375V11.875C11.25 12.0978 11.1314 12.3037 10.9387 12.4156C10.746 12.5274 10.5084 12.5282 10.3149 12.4177L6.25 10.0948V13.125C6.25 13.4702 5.97018 13.75 5.625 13.75H3.125C2.77982 13.75 2.5 13.4702 2.5 13.125V10C1.80964 10 1.25 9.44036 1.25 8.75V5C1.25 4.30964 1.80964 3.75 2.5 3.75H6.08402L10.3149 1.33235C10.5084 1.22181 10.746 1.2226 10.9387 1.33443ZM6.25 8.75C6.35877 8.75 6.46565 8.77838 6.56009 8.83235L10 10.798V2.95199L6.56009 4.91765C6.46565 4.97162 6.35877 5 6.25 5H2.5V8.75H6.25ZM3.75 10V12.5H5V10H3.75ZM11.25 8.125C11.6201 8.125 11.9521 7.96491 12.1819 7.70818C12.3802 7.48662 12.5 7.19555 12.5 6.875C12.5 6.55445 12.3802 6.26338 12.1819 6.04182C11.9521 5.78509 11.6201 5.625 11.25 5.625V8.125Z" fill="url(#paint0_linear_2628_17224)"/>
</g>
<defs>
<linearGradient id="paint0_linear_2628_17224" x1="4.64286" y1="-1.07143" x2="9.28571" y2="15.7143" gradientUnits="userSpaceOnUse">
<stop stop-color="#2DF47D"/>
<stop offset="1" stop-color="#2DF4DC"/>
</linearGradient>
</defs>
</svg>
