<svg width="20" height="20" viewBox="0 0 20 20" fill="none" xmlns="http://www.w3.org/2000/svg">
<g id="notification">
<path id="Icon" d="M8.45512 2.7066C8.70275 2.09664 9.30115 1.6665 10 1.6665C10.6989 1.6665 11.2972 2.09664 11.5449 2.7066C14.0168 3.38377 15.8333 5.64633 15.8333 8.33317V12.2475L17.36 14.5376C17.5305 14.7933 17.5464 15.1221 17.4014 15.3931C17.2564 15.664 16.974 15.8332 16.6667 15.8332H12.8871C12.685 17.2466 11.4694 18.3332 10 18.3332C8.53064 18.3332 7.31505 17.2466 7.11287 15.8332H3.33333C3.02601 15.8332 2.74362 15.664 2.59861 15.3931C2.45359 15.1221 2.46948 14.7933 2.63996 14.5376L4.16667 12.2475V8.33317C4.16667 5.64633 5.98319 3.38377 8.45512 2.7066ZM8.82113 15.8332C8.99273 16.3187 9.45574 16.6665 10 16.6665C10.5443 16.6665 11.0073 16.3187 11.1789 15.8332H8.82113ZM10 4.1665C7.69881 4.1665 5.83333 6.03198 5.83333 8.33317V12.4998C5.83333 12.6644 5.78464 12.8252 5.69338 12.9621L4.89043 14.1665H15.1096L14.3066 12.9621C14.2154 12.8252 14.1667 12.6644 14.1667 12.4998V8.33317C14.1667 6.03198 12.3012 4.1665 10 4.1665Z" fill="#5D63FF"/>
</g>
</svg>
