<svg width="20" height="20" viewBox="0 0 20 20" fill="none" xmlns="http://www.w3.org/2000/svg">
<g id="notification">
<path id="Icon" d="M8.45512 2.70673C8.70275 2.09676 9.30115 1.66663 10 1.66663C10.6989 1.66663 11.2972 2.09676 11.5449 2.70673C14.0168 3.38389 15.8333 5.64645 15.8333 8.33329V12.2476L17.36 14.5377C17.5305 14.7934 17.5464 15.1222 17.4014 15.3932C17.2564 15.6641 16.974 15.8333 16.6667 15.8333H12.8871C12.685 17.2467 11.4694 18.3333 10 18.3333C8.53064 18.3333 7.31505 17.2467 7.11287 15.8333H3.33333C3.02601 15.8333 2.74362 15.6641 2.59861 15.3932C2.45359 15.1222 2.46948 14.7934 2.63996 14.5377L4.16667 12.2476V8.33329C4.16667 5.64645 5.98319 3.38389 8.45512 2.70673ZM8.82113 15.8333C8.99273 16.3188 9.45574 16.6666 10 16.6666C10.5443 16.6666 11.0073 16.3188 11.1789 15.8333H8.82113ZM10 4.16663C7.69881 4.16663 5.83333 6.03211 5.83333 8.33329V12.5C5.83333 12.6645 5.78464 12.8253 5.69338 12.9622L4.89043 14.1666H15.1096L14.3066 12.9622C14.2154 12.8253 14.1667 12.6645 14.1667 12.5V8.33329C14.1667 6.03211 12.3012 4.16663 10 4.16663Z" fill="white"/>
</g>
</svg>
