<svg width="18" height="18" viewBox="0 0 18 18" fill="none" xmlns="http://www.w3.org/2000/svg">
<g id="options-vertical" opacity="0.4">
<g id="Icon">
<path d="M7.5 9C7.5 9.82843 8.17157 10.5 9 10.5C9.82843 10.5 10.5 9.82843 10.5 9C10.5 8.17157 9.82843 7.5 9 7.5C8.17157 7.5 7.5 8.17157 7.5 9Z" fill="white"/>
<path d="M7.5 4.5C7.5 5.32843 8.17157 6 9 6C9.82843 6 10.5 5.32843 10.5 4.5C10.5 3.67157 9.82843 3 9 3C8.17157 3 7.5 3.67157 7.5 4.5Z" fill="white"/>
<path d="M7.5 13.5C7.5 14.3284 8.17157 15 9 15C9.82843 15 10.5 14.3284 10.5 13.5C10.5 12.6716 9.82843 12 9 12C8.17157 12 7.5 12.6716 7.5 13.5Z" fill="white"/>
</g>
</g>
</svg>
