<svg width="20" height="20" viewBox="0 0 20 20" fill="none" xmlns="http://www.w3.org/2000/svg">
<g id="refrigerator">
<path id="Vector" d="M4.16675 5.00001C4.16675 4.11595 4.51794 3.2681 5.14306 2.64298C5.76818 2.01786 6.61603 1.66667 7.50008 1.66667H12.5001C13.3841 1.66667 14.232 2.01786 14.8571 2.64298C15.4822 3.2681 15.8334 4.11595 15.8334 5.00001V16.6667C15.8334 17.1087 15.6578 17.5326 15.3453 17.8452C15.0327 18.1577 14.6088 18.3333 14.1667 18.3333H5.83341C5.39139 18.3333 4.96746 18.1577 4.6549 17.8452C4.34234 17.5326 4.16675 17.1087 4.16675 16.6667V5.00001Z" stroke="white" stroke-linecap="round" stroke-linejoin="round"/>
<path id="Vector_2" d="M4.16675 8.33333H15.8334" stroke="white" stroke-linecap="round" stroke-linejoin="round"/>
<path id="Vector_3" d="M12.5 5.83333V10.8333" stroke="white" stroke-linecap="round" stroke-linejoin="round"/>
</g>
</svg>
