<svg width="20" height="20" viewBox="0 0 20 20" fill="none" xmlns="http://www.w3.org/2000/svg">
<g id="sofa">
<path id="Vector" d="M16.6666 7.5V5C16.6666 4.55798 16.491 4.13405 16.1784 3.82149C15.8659 3.50893 15.4419 3.33334 14.9999 3.33334H4.99992C4.55789 3.33334 4.13397 3.50893 3.82141 3.82149C3.50885 4.13405 3.33325 4.55798 3.33325 5V7.5" stroke="white" stroke-linecap="round" stroke-linejoin="round"/>
<path id="Vector_2" d="M1.66675 9.16667V13.3333C1.66675 13.7754 1.84234 14.1993 2.1549 14.5118C2.46746 14.8244 2.89139 15 3.33341 15H16.6667C17.1088 15 17.5327 14.8244 17.8453 14.5118C18.1578 14.1993 18.3334 13.7754 18.3334 13.3333V9.16667C18.3334 8.72464 18.1578 8.30072 17.8453 7.98816C17.5327 7.6756 17.1088 7.5 16.6667 7.5C16.2247 7.5 15.8008 7.6756 15.4882 7.98816C15.1757 8.30072 15.0001 8.72464 15.0001 9.16667V10.8333H5.00008V9.16667C5.00008 8.72464 4.82449 8.30072 4.51193 7.98816C4.19937 7.6756 3.77544 7.5 3.33341 7.5C2.89139 7.5 2.46746 7.6756 2.1549 7.98816C1.84234 8.30072 1.66675 8.72464 1.66675 9.16667Z" stroke="white" stroke-linecap="round" stroke-linejoin="round"/>
<path id="Vector_3" d="M3.33325 15V16.6667" stroke="white" stroke-linecap="round" stroke-linejoin="round"/>
<path id="Vector_4" d="M16.6667 15V16.6667" stroke="white" stroke-linecap="round" stroke-linejoin="round"/>
<path id="Vector_5" d="M10 3.33334V10.8333" stroke="white" stroke-linecap="round" stroke-linejoin="round"/>
</g>
</svg>
