<svg width="16" height="16" viewBox="0 0 16 16" fill="none" xmlns="http://www.w3.org/2000/svg">
<path d="M13.9 14H2.1C2.04477 14 2 13.9552 2 13.9V11.5737C2 11.5185 2.04477 11.4737 2.1 11.4737H4.42632C4.48154 11.4737 4.52632 11.4289 4.52632 11.3737V8.41579C4.52632 8.36056 4.57109 8.31579 4.62632 8.31579H7.58421C7.63944 8.31579 7.68421 8.27102 7.68421 8.21579V5.25789C7.68421 5.20267 7.72898 5.15789 7.78421 5.15789H10.7421C10.7973 5.15789 10.8421 5.11312 10.8421 5.05789V2.1C10.8421 2.04477 10.8869 2 10.9421 2H13.9C13.9552 2 14 2.04477 14 2.1V13.9C14 13.9552 13.9552 14 13.9 14Z" stroke="white" stroke-linejoin="round"/>
</svg>
