<svg width="36" height="21" viewBox="0 0 36 21" fill="none" xmlns="http://www.w3.org/2000/svg">
<rect width="36" height="21" rx="10.5" fill="#5A9E49"/>
<path d="M14.6665 9.16669V17.1667" stroke="white" stroke-linecap="round" stroke-linejoin="round"/>
<path d="M20.0002 6.41998L19.3335 9.16665H23.2202C23.4272 9.16665 23.6313 9.21484 23.8164 9.30741C24.0016 9.39998 24.1626 9.53439 24.2868 9.69998C24.411 9.86557 24.495 10.0578 24.532 10.2615C24.569 10.4651 24.5581 10.6746 24.5002 10.8733L22.9468 16.2066C22.8661 16.4836 22.6976 16.7269 22.4668 16.9C22.236 17.0731 21.9553 17.1666 21.6668 17.1666H12.6668C12.3132 17.1666 11.9741 17.0262 11.724 16.7761C11.474 16.5261 11.3335 16.1869 11.3335 15.8333V10.5C11.3335 10.1464 11.474 9.80722 11.724 9.55717C11.9741 9.30712 12.3132 9.16665 12.6668 9.16665H14.5068C14.7549 9.16651 14.998 9.09719 15.2088 8.96646C15.4196 8.83573 15.5898 8.64879 15.7002 8.42665L18.0002 3.83331C18.3145 3.83721 18.624 3.91209 18.9054 4.05238C19.1867 4.19266 19.4328 4.39472 19.6251 4.64345C19.8174 4.89218 19.951 5.18115 20.016 5.48878C20.0809 5.79641 20.0755 6.11474 20.0002 6.41998Z" stroke="white" stroke-linecap="round" stroke-linejoin="round"/>
</svg>
