<svg width="36" height="21" viewBox="0 0 36 21" fill="none" xmlns="http://www.w3.org/2000/svg">
<rect width="36" height="21" rx="10.5" fill="#D15B5B"/>
<path d="M21.3335 11.8333V3.83334" stroke="white" stroke-linecap="round" stroke-linejoin="round"/>
<path d="M16.0001 14.58L16.6668 11.8333H12.7801C12.5731 11.8333 12.369 11.7852 12.1838 11.6926C11.9987 11.6 11.8376 11.4656 11.7134 11.3C11.5892 11.1344 11.5053 10.9422 11.4683 10.7385C11.4313 10.5349 11.4422 10.3254 11.5001 10.1267L13.0534 4.79334C13.1342 4.51639 13.3026 4.27311 13.5334 4.10001C13.7642 3.92691 14.045 3.83334 14.3334 3.83334H23.3334C23.6871 3.83334 24.0262 3.97382 24.2763 4.22387C24.5263 4.47392 24.6668 4.81305 24.6668 5.16668V10.5C24.6668 10.8536 24.5263 11.1928 24.2763 11.4428C24.0262 11.6929 23.6871 11.8333 23.3334 11.8333H21.4934C21.2454 11.8335 21.0023 11.9028 20.7915 12.0335C20.5807 12.1643 20.4105 12.3512 20.3001 12.5733L18.0001 17.1667C17.6857 17.1628 17.3763 17.0879 17.0949 16.9476C16.8135 16.8073 16.5675 16.6053 16.3752 16.3565C16.1829 16.1078 16.0492 15.8188 15.9843 15.5112C15.9193 15.2036 15.9247 14.8853 16.0001 14.58Z" stroke="white" stroke-linecap="round" stroke-linejoin="round"/>
</svg>
