<svg width="14" height="14" viewBox="0 0 14 14" fill="none" xmlns="http://www.w3.org/2000/svg">
<g id="users">
<path id="Icon" d="M5.83341 2.33366C4.54475 2.33366 3.50008 3.37833 3.50008 4.66699C3.50008 5.95566 4.54475 7.00033 5.83341 7.00033C7.12208 7.00033 8.16675 5.95566 8.16675 4.66699C8.16675 3.37833 7.12208 2.33366 5.83341 2.33366ZM2.33341 4.66699C2.33341 2.734 3.90042 1.16699 5.83341 1.16699C7.76641 1.16699 9.33341 2.734 9.33341 4.66699C9.33341 6.59999 7.76641 8.16699 5.83341 8.16699C3.90042 8.16699 2.33341 6.59999 2.33341 4.66699ZM9.81667 2.19212C10.0445 1.96431 10.4138 1.96431 10.6416 2.19212C12.0085 3.55895 12.0085 5.77503 10.6416 7.14187C10.4138 7.36967 10.0445 7.36967 9.81667 7.14187C9.58886 6.91406 9.58886 6.54471 9.81667 6.31691C10.7279 5.40568 10.7279 3.9283 9.81667 3.01708C9.58886 2.78927 9.58886 2.41992 9.81667 2.19212ZM10.2258 9.77551C10.304 9.46297 10.6207 9.27294 10.9332 9.35108C11.7078 9.54473 12.1982 10.04 12.4802 10.604C12.753 11.1498 12.8334 11.7587 12.8334 12.2503C12.8334 12.5725 12.5722 12.8337 12.2501 12.8337C11.9279 12.8337 11.6667 12.5725 11.6667 12.2503C11.6667 11.867 11.6013 11.455 11.4367 11.1258C11.2812 10.8148 11.0423 10.5809 10.6503 10.4829C10.3377 10.4048 10.1477 10.0881 10.2258 9.77551ZM3.79175 10.5003C3.05706 10.5003 2.33341 11.2082 2.33341 12.2503C2.33341 12.5725 2.07225 12.8337 1.75008 12.8337C1.42792 12.8337 1.16675 12.5725 1.16675 12.2503C1.16675 10.7151 2.27127 9.33366 3.79175 9.33366H7.87508C9.39556 9.33366 10.5001 10.7151 10.5001 12.2503C10.5001 12.5725 10.2389 12.8337 9.91675 12.8337C9.59458 12.8337 9.33341 12.5725 9.33341 12.2503C9.33341 11.2082 8.60977 10.5003 7.87508 10.5003H3.79175Z" fill="#3E46FB"/>
</g>
</svg>
