<svg width="24" height="24" viewBox="0 0 24 24" fill="none" xmlns="http://www.w3.org/2000/svg">
<g id="xbase">
<g id="Icon">
<path d="M15.8657 17.5487C15.4751 17.9392 14.842 17.9392 14.4514 17.5487L12.1586 15.2558L9.86566 17.5487C9.47513 17.9392 8.84197 17.9392 8.45144 17.5487C8.06092 17.1582 8.06092 16.525 8.45144 16.1345L10.7443 13.8416L8.45144 11.5487C8.06092 11.1582 8.06092 10.525 8.45144 10.1345C8.84197 9.74398 9.47513 9.74398 9.86566 10.1345L12.1586 12.4274L14.4514 10.1345C14.842 9.74398 15.4751 9.74398 15.8657 10.1345C16.2562 10.525 16.2562 11.1582 15.8657 11.5487L13.5728 13.8416L15.8657 16.1345C16.2562 16.525 16.2562 17.1582 15.8657 17.5487Z" fill="#5D63FF"/>
<path fill-rule="evenodd" clip-rule="evenodd" d="M19.1585 21.8416C19.7108 21.8416 20.1585 21.3939 20.1585 20.8416L20.1585 9.30155C20.1585 8.7177 19.9034 8.163 19.4601 7.78304L13.4601 2.64018C12.7112 1.9982 11.6059 1.9982 10.857 2.64018L4.85697 7.78303C4.41368 8.163 4.15855 8.7177 4.15855 9.30155L4.15855 20.8416C4.15855 21.3939 4.60627 21.8416 5.15855 21.8416L19.1585 21.8416ZM6.15855 19.8416L6.15855 9.30155L12.1586 4.15869L18.1586 9.30155L18.1585 19.8416L6.15855 19.8416Z" fill="#5D63FF"/>
</g>
</g>
</svg>
